<svg width="16" height="8" viewBox="0 0 16 8" fill="none" xmlns="http://www.w3.org/2000/svg">
<path d="M7.99979 7.03156C7.76614 7.03202 7.5397 6.95029 7.35979 6.80056L1.35979 1.77892C1.15557 1.60845 1.02715 1.36348 1.00277 1.09791C0.978387 0.832337 1.06005 0.567916 1.22979 0.362816C1.39953 0.157715 1.64344 0.0287351 1.90786 0.00424984C2.17229 -0.0202354 2.43557 0.0617795 2.63979 0.232253L7.99979 4.73165L13.3598 0.392946C13.4621 0.309521 13.5798 0.24722 13.7061 0.209627C13.8325 0.172033 13.9649 0.159887 14.096 0.173886C14.227 0.187886 14.354 0.227754 14.4696 0.291202C14.5853 0.354649 14.6873 0.440424 14.7698 0.543595C14.8614 0.646862 14.9307 0.76801 14.9735 0.89945C15.0163 1.03089 15.0316 1.16979 15.0185 1.30745C15.0053 1.4451 14.964 1.57855 14.8971 1.69943C14.8303 1.82031 14.7392 1.92601 14.6298 2.00992L8.62979 6.86082C8.44471 6.98688 8.22289 7.047 7.99979 7.03156Z" fill="white"/>
</svg>
