<svg width="28" height="27" viewBox="0 0 28 27" fill="none" xmlns="http://www.w3.org/2000/svg">
<path d="M26.3678 0H1.09866C0.490962 0 0 0.482625 0 1.08V25.92C0 26.5174 0.490962 27 1.09866 27H26.3678C26.9755 27 27.4664 26.5174 27.4664 25.92V1.08C27.4664 0.482625 26.9755 0 26.3678 0ZM23.1954 7.88063H21.0015C19.2814 7.88063 18.9484 8.68388 18.9484 9.86512V12.4672H23.0546L22.519 16.5409H18.9484V27H14.6671V16.5443H11.0861V12.4672H14.6671V9.4635C14.6671 5.97712 16.8335 4.077 19.999 4.077C21.5165 4.077 22.8177 4.18838 23.1988 4.239V7.88063H23.1954Z" fill="white"/>
</svg>
