<svg width="29" height="27" viewBox="0 0 29 27" fill="none" xmlns="http://www.w3.org/2000/svg">
<path d="M14.4552 8.99808C11.9335 8.99808 9.87559 11.0211 9.87559 13.5C9.87559 15.9789 11.9335 18.0019 14.4552 18.0019C16.977 18.0019 19.0349 15.9789 19.0349 13.5C19.0349 11.0211 16.977 8.99808 14.4552 8.99808ZM28.1907 13.5C28.1907 11.6357 28.2079 9.78837 28.1014 7.92748C27.9949 5.76602 27.4933 3.84773 25.8854 2.26716C24.2742 0.683215 22.3262 0.19351 20.1274 0.0888138C18.2309 -0.0158819 16.3517 0.00100455 14.4587 0.00100455C12.5622 0.00100455 10.683 -0.0158819 8.78994 0.0888138C6.59116 0.19351 4.63975 0.686593 3.03189 2.26716C1.4206 3.85111 0.922437 5.76602 0.815933 7.92748C0.70943 9.79174 0.726608 11.6391 0.726608 13.5C0.726608 15.3609 0.70943 17.2116 0.815933 19.0725C0.922437 21.234 1.42403 23.1523 3.03189 24.7328C4.64318 26.3168 6.59116 26.8065 8.78994 26.9112C10.6864 27.0159 12.5657 26.999 14.4587 26.999C16.3551 26.999 18.2344 27.0159 20.1274 26.9112C22.3262 26.8065 24.2776 26.3134 25.8854 24.7328C27.4967 23.1489 27.9949 21.234 28.1014 19.0725C28.2113 17.2116 28.1907 15.3643 28.1907 13.5ZM14.4552 20.4268C10.5558 20.4268 7.40883 17.3332 7.40883 13.5C7.40883 9.66679 10.5558 6.57319 14.4552 6.57319C18.3546 6.57319 21.5016 9.66679 21.5016 13.5C21.5016 17.3332 18.3546 20.4268 14.4552 20.4268ZM21.7902 7.90722C20.8798 7.90722 20.1446 7.18448 20.1446 6.2895C20.1446 5.39452 20.8798 4.67179 21.7902 4.67179C22.7007 4.67179 23.4359 5.39452 23.4359 6.2895C23.4361 6.50202 23.3938 6.7125 23.3112 6.90889C23.2285 7.10528 23.1073 7.28373 22.9545 7.434C22.8016 7.58427 22.6201 7.70342 22.4203 7.78462C22.2205 7.86583 22.0064 7.90749 21.7902 7.90722Z" fill="white"/>
</svg>
