<svg width="16" height="16" viewBox="0 0 16 16" fill="none" xmlns="http://www.w3.org/2000/svg">
<path d="M8.18327 5.70552C6.78231 5.70552 5.63902 6.84676 5.63902 8.24521C5.63902 9.64365 6.78231 10.7849 8.18327 10.7849C9.58424 10.7849 10.7275 9.64365 10.7275 8.24521C10.7275 6.84676 9.58424 5.70552 8.18327 5.70552ZM15.8141 8.24521C15.8141 7.19352 15.8237 6.15135 15.7645 5.10156C15.7053 3.88221 15.4267 2.80003 14.5334 1.90838C13.6383 1.01482 12.556 0.73856 11.3345 0.679497C10.2809 0.620435 9.23686 0.629961 8.18518 0.629961C7.1316 0.629961 6.08756 0.620435 5.03588 0.679497C3.81433 0.73856 2.73021 1.01672 1.83695 1.90838C0.941783 2.80194 0.665026 3.88221 0.605857 5.10156C0.546688 6.15325 0.556232 7.19542 0.556232 8.24521C0.556232 9.295 0.546688 10.3391 0.605857 11.3889C0.665026 12.6082 0.943692 13.6904 1.83695 14.582C2.73212 15.4756 3.81433 15.7519 5.03588 15.8109C6.08946 15.87 7.13351 15.8605 8.18518 15.8605C9.23877 15.8605 10.2828 15.87 11.3345 15.8109C12.556 15.7519 13.6402 15.4737 14.5334 14.582C15.4286 13.6885 15.7053 12.6082 15.7645 11.3889C15.8256 10.3391 15.8141 9.2969 15.8141 8.24521ZM8.18327 12.1529C6.01693 12.1529 4.26859 10.4077 4.26859 8.24521C4.26859 6.08276 6.01693 4.33756 8.18327 4.33756C10.3496 4.33756 12.098 6.08276 12.098 8.24521C12.098 10.4077 10.3496 12.1529 8.18327 12.1529ZM12.2583 5.09013C11.7525 5.09013 11.344 4.68241 11.344 4.17752C11.344 3.67263 11.7525 3.26491 12.2583 3.26491C12.7641 3.26491 13.1725 3.67263 13.1725 4.17752C13.1727 4.29741 13.1491 4.41615 13.1033 4.52694C13.0574 4.63773 12.99 4.73839 12.9051 4.82317C12.8202 4.90794 12.7193 4.97516 12.6083 5.02097C12.4973 5.06678 12.3784 5.09028 12.2583 5.09013Z" fill="white"/>
</svg>
