<svg xmlns="http://www.w3.org/2000/svg" xmlns:xlink="http://www.w3.org/1999/xlink" width="121" height="129" viewBox="0 0 121 129">
  <defs>
    <radialGradient id="b" cx="73.044%" cy="44.503%" r="29.163%" fx="73.044%" fy="44.503%" gradientTransform="scale(1 .7607) rotate(-78.939 .815 .515)">
      <stop offset="0%" stop-color="#626262"/>
      <stop offset="100%" stop-color="#111"/>
    </radialGradient>
    <path id="a" d="M49.9466278,5.86639832 C49.3099098,5.86639832 48.6657665,5.98796465 48.0438991,6.24979983 L8.91265957,22.5789635 C7.68006265,23.0932826 6.71848855,24.0602025 6.20985669,25.3020493 C5.69751219,26.5420259 5.69751219,27.9091795 6.20985669,29.1510264 L43.5720226,120.028405 C44.6264128,122.592519 47.5593994,123.813793 50.0932771,122.751491 L89.2245166,106.420457 C91.7695323,105.358154 92.9817097,102.410638 91.9291758,99.8465235 L54.5670099,8.97101539 C53.7706483,7.03530535 51.9069024,5.86639832 49.9466278,5.86639832 M48.19983,129 C43.9525684,129 39.9150709,126.46581 38.190549,122.274577 L0.828383095,31.3953279 C-0.276127698,28.7077768 -0.276127698,25.7452988 0.828383095,23.0558775 C1.93475021,20.3664562 4.01382935,18.2717748 6.68321846,17.1589754 L45.814458,0.827941457 C51.3203051,-1.46685682 57.6614964,1.17206769 59.9466272,6.72484364 L97.3087931,97.602222 C99.5883549,103.154998 96.9635175,109.541906 91.4558141,111.840445 L52.3245745,128.171479 C50.9750294,128.734424 49.5753636,129 48.19983,129"/>
    <linearGradient id="c" x1="21.005%" x2="71.275%" y1="100%" y2="70.933%">
      <stop offset="0%" stop-color="#D3D0DD"/>
      <stop offset="100%" stop-color="#111"/>
    </linearGradient>
    <radialGradient id="e" cx="61.725%" cy="52.493%" r="38.332%" fx="61.725%" fy="52.493%" gradientTransform="matrix(0 1 -1.64794 0 1.482 -.092)">
      <stop offset="0%" stop-color="#DAD7E2"/>
      <stop offset="58.183%" stop-color="#D9D6E2"/>
      <stop offset="100%" stop-color="#111" stop-opacity="0"/>
    </radialGradient>
    <path id="d" d="M83.2150338,67.023116 C71.988256,71.7137778 62.616159,78.1972646 56.4767186,86 L40.6542056,47.4298309 C47.3671819,39.2756717 56.1638809,33.145488 67.3906587,28.4548262 C78.6211607,23.7641645 89.9615284,21.4827288 99.5961856,22.8076153 L115.420561,61.375905 C105.413478,60.3197544 94.4436737,62.3343335 83.2150338,67.023116"/>
  </defs>
  <g fill="none" fill-rule="evenodd">
    <use fill="#111" xlink:href="#a"/>
    <use fill="url(#b)" xlink:href="#a"/>
    <use fill="url(#c)" xlink:href="#d"/>
    <use fill="url(#e)" xlink:href="#d"/>
    <path fill="#111" d="M88.5495334,78.8480181 C76.3575433,78.8461556 65.2007046,81.1966246 56.5420561,85.9906875 L56.5476616,47.3401853 C65.8733661,42.4418227 76.3631488,40.1937908 88.5551389,40.1956533 C100.747129,40.1975158 112.130057,42.4492726 120.560748,47.3494977 L120.555142,86 C111.679747,81.2022121 100.741523,78.8498806 88.5495334,78.8480181"/>
  </g>
</svg>