<svg width="23" height="11" viewBox="0 0 23 11" fill="none" xmlns="http://www.w3.org/2000/svg">
<path d="M4.18743 5.5115L4.39386 7.8749L4.18743 10.3583C4.17676 10.4492 4.10913 10.5183 4.03083 10.5183C3.95254 10.5183 3.88135 10.4492 3.88135 10.3583L3.68205 7.8749L3.88135 5.5115C3.88135 5.43151 3.94898 5.35879 4.03083 5.35879C4.10913 5.35879 4.17676 5.43151 4.18743 5.5115ZM4.94907 3.85349C4.84941 3.85349 4.78179 3.93348 4.77112 4.03529L4.59316 7.8749L4.77112 10.3583C4.78179 10.4601 4.84941 10.5401 4.94907 10.5401C5.03804 10.5401 5.11634 10.4601 5.11634 10.3583L5.32277 7.8749L5.11634 4.03529C5.11634 3.93348 5.03804 3.85349 4.94907 3.85349ZM5.85662 2.97721C5.74629 2.97721 5.66799 3.0572 5.65732 3.16992L5.50072 7.89671L5.65732 10.3619C5.66799 10.4746 5.74629 10.5546 5.85662 10.5546C5.95628 10.5546 6.04525 10.4746 6.04525 10.3619L6.23388 7.89671L6.04525 3.16992C6.04525 3.0572 5.95628 2.97721 5.85662 2.97721ZM0.478907 6.48958C0.429081 6.48958 0.400608 6.52958 0.389931 6.58048L0.222656 7.8749L0.389931 9.1475C0.400608 9.1984 0.429081 9.2384 0.478907 9.2384C0.528734 9.2384 0.557206 9.1984 0.567884 9.1475L0.76719 7.8749L0.567884 6.58048C0.557206 6.52958 0.528734 6.48958 0.478907 6.48958ZM1.31884 5.6933C1.26902 5.6933 1.22987 5.7333 1.22987 5.7842L1.00209 7.8749L1.22987 9.91469C1.22987 9.9765 1.26902 10.0165 1.31884 10.0165C1.36867 10.0165 1.40782 9.9765 1.4185 9.9256L1.67475 7.8749L1.4185 5.7842C1.40782 5.7333 1.36867 5.6933 1.31884 5.6933ZM2.21928 5.2788C2.15878 5.2788 2.10895 5.3297 2.10183 5.39879L1.89541 7.8749L2.10183 10.2674C2.11251 10.3292 2.16234 10.3801 2.21928 10.3801C2.27978 10.3801 2.32961 10.3292 2.32961 10.2674L2.57519 7.8749L2.32961 5.39879C2.32961 5.3297 2.27978 5.2788 2.21928 5.2788ZM3.11972 5.19881C3.0521 5.19881 2.99159 5.24971 2.99159 5.3297L2.78517 7.8749L2.99159 10.3401C2.99159 10.4201 3.0521 10.471 3.11972 10.471C3.18734 10.471 3.24784 10.4201 3.25852 10.3401L3.4863 7.8749L3.25852 5.3297C3.24784 5.24971 3.18734 5.19881 3.11972 5.19881ZM11.7113 1.16649C11.6721 1.1374 11.6116 1.11558 11.5618 1.11558C11.4835 1.11558 11.4123 1.14467 11.3625 1.18467C11.2948 1.24648 11.2521 1.33738 11.245 1.42828V1.45737L11.1276 7.88217L11.1881 9.06387L11.2486 10.2165C11.2593 10.3874 11.3981 10.5292 11.5653 10.5292C11.7326 10.5292 11.8714 10.3874 11.8714 10.2165L12.0102 7.88217L11.8714 1.42828C11.8572 1.3192 11.8002 1.21739 11.7113 1.16649ZM10.761 1.72279C10.7112 1.69371 10.6613 1.67189 10.6044 1.67189C10.5474 1.67189 10.4941 1.69371 10.4478 1.72279C10.3695 1.7737 10.3197 1.8646 10.3197 1.96641L10.309 2.02822L10.2093 7.8749C10.2093 7.8749 10.2093 7.88581 10.3197 10.2601V10.271C10.3197 10.3328 10.341 10.391 10.3802 10.4419C10.4407 10.511 10.519 10.5546 10.6079 10.5546C10.6862 10.5546 10.7574 10.5146 10.8073 10.4637C10.8678 10.4128 10.8962 10.3437 10.8962 10.2601L10.9069 10.0165L11.0172 7.88581L10.8998 1.96641C10.8891 1.8646 10.8393 1.7737 10.761 1.72279ZM6.79621 2.54089C6.68588 2.54089 6.58979 2.6427 6.58979 2.76269L6.43319 7.8749L6.58979 10.3183C6.60046 10.4383 6.68944 10.5292 6.79621 10.5292C6.91366 10.5292 7.00264 10.4383 7.01331 10.3183L7.19127 7.8749L7.01331 2.76269C7.0062 2.6427 6.91722 2.54089 6.79621 2.54089ZM20.2031 4.8243C19.8188 4.8243 19.4522 4.90429 19.1141 5.04609C18.8863 2.47181 16.7722 0.450195 14.1919 0.450195C13.5584 0.450195 12.9462 0.570183 12.4017 0.791979C12.1846 0.871971 12.1241 0.951963 12.1241 1.12649V10.2056C12.1241 10.3874 12.2629 10.5183 12.4302 10.5401H20.1996C21.7406 10.5401 22.997 9.26748 22.997 7.6931C23.0005 6.1078 21.7442 4.8243 20.2031 4.8243ZM9.64345 2.63179C9.49397 2.63179 9.37652 2.75178 9.36584 2.9154L9.24839 7.88581L9.36584 10.271C9.37652 10.4237 9.49397 10.5437 9.64345 10.5437C9.79293 10.5437 9.91038 10.4237 9.91038 10.271L10.0492 7.88581L9.91038 2.9154C9.8997 2.75178 9.79293 2.63179 9.64345 2.63179ZM7.7358 2.34819C7.61835 2.34819 7.50802 2.4609 7.50802 2.5918L7.36922 7.8749L7.50802 10.3074C7.5187 10.4383 7.61835 10.5401 7.7358 10.5401C7.86393 10.5401 7.96358 10.4383 7.97426 10.3074L8.13085 7.8749L7.97426 2.5918C7.96358 2.4609 7.86393 2.34819 7.7358 2.34819ZM8.68607 2.47181C8.54726 2.47181 8.44049 2.58452 8.44049 2.72269L8.30169 7.8749L8.44049 10.2892C8.45117 10.431 8.55082 10.5401 8.68607 10.5401C8.82131 10.5401 8.93164 10.4274 8.93164 10.2892L9.08112 7.8749L8.93164 2.72269C8.93164 2.58089 8.82487 2.47181 8.68607 2.47181Z" fill="white"/>
</svg>
