<svg width="332" height="332" viewBox="0 0 332 332" fill="none" xmlns="http://www.w3.org/2000/svg">
<path d="M166 3.6087C187.941 3.6087 209.16 7.86696 229.224 16.3835C248.567 24.5391 265.961 36.3035 280.829 51.1713C295.697 66.0391 307.461 83.433 315.617 102.776C324.061 122.768 328.391 144.059 328.391 166C328.391 187.941 324.133 209.16 315.617 229.224C307.461 248.567 295.697 265.961 280.829 280.829C265.961 295.697 248.567 307.461 229.224 315.617C209.16 324.133 187.941 328.391 166 328.391C144.059 328.391 122.84 324.133 102.776 315.617C83.433 307.461 66.0391 295.697 51.1713 280.829C36.3035 265.961 24.5391 248.567 16.3835 229.224C7.86696 209.16 3.6087 187.941 3.6087 166C3.6087 144.059 7.86696 122.84 16.3835 102.776C24.5391 83.433 36.2313 66.1113 51.1713 51.1713C66.1113 36.2313 83.433 24.5391 102.776 16.3835C122.84 7.86696 144.059 3.6087 166 3.6087ZM166 0C74.3391 0 0 74.3391 0 166C0 257.661 74.3391 332 166 332C257.661 332 332 257.661 332 166C332 74.3391 257.661 0 166 0Z" fill="#1a1a1a"/>
<path d="M67.1211 168.021L153.73 259.465L264.878 92.7437" stroke="#1a1a1a" stroke-width="7" stroke-miterlimit="10"/>
</svg>
